<svg xmlns="http://www.w3.org/2000/svg" width="156" height="29" fill="none"><path fill="#fff" d="M7.412 4.69c5.026 0 8.017 2.883 8.023 7.362.192-.967 2.2-1.582 4.302-1.582 1.122 0 1.836.442 1.836 1.801v10.235c0 1.632.273 2.448 1.02 2.448 1.53 0 2.21-3.978 2.21-7.072v-2.516c0-1.972-1.257-1.836-1.257-3.162 0-1.054 2.107-1.734 4.317-1.734 1.122 0 1.836.442 1.836 1.801v11.663c0 1.972 1.259 1.836 1.259 3.162 0 1.054-2.108 1.734-4.148 1.734-1.122 0-1.734-.443-1.836-1.803l-.17-2.006c-.85 2.176-2.142 3.809-4.42 3.81-2.686 0-3.706-2.381-3.706-5.271v-8.194c0-1.889-1.152-1.844-1.25-3.003-.147 3.715-3.078 6.233-7.948 6.233H6.29V24c0 2.108 1.598 1.938 1.599 3.366 0 .782-.477 1.122-1.599 1.122H1.599C.477 28.49 0 28.183 0 27.436c0-1.326 1.258-1.19 1.258-3.163V8.905C1.258 6.933 0 7.07 0 5.743 0 4.995.477 4.69 1.599 4.69zm70.995 5.78c4.148 0 7.241 2.516 7.241 7.072v.237c0 .578-.373.817-1.053.817h-9.792c.306 3.366 1.632 6.63 5.406 6.63s4.012-3.57 5.202-3.57c.374 0 .578.306.578.714 0 2.55-2.619 6.46-7.753 6.46-5.303 0-8.601-3.57-8.601-9.146 0-5.61 3.57-9.214 8.772-9.214m24.363-6.12c5.337 0 8.635 3.297 8.635 5.847 0 1.802-1.326 2.925-2.55 2.925-1.156 0-1.666-.578-1.904-1.734-.748-3.366-2.278-5.067-5.099-5.067-2.924 0-4.964 2.449-4.964 7.31 0 7.14 2.923 10.846 7.411 10.846 5.712 0 5.543-5.1 7.005-5.1.305.001.475.273.475.782 0 3.4-2.584 8.671-9.214 8.671-5.984 0-11.118-4.658-11.118-12.104 0-8.058 5.644-12.376 11.323-12.376m29.011 6.12c1.122 0 1.836.442 1.836 1.801v11.663c0 1.972 1.259 1.836 1.259 3.162 0 1.054-2.108 1.734-4.148 1.734-1.122 0-1.734-.443-1.836-1.803l-.17-2.006c-.85 2.177-2.142 3.809-4.42 3.81-2.686 0-3.706-2.381-3.706-5.271v-8.194c0-1.972-1.258-1.836-1.258-3.162 0-1.054 2.107-1.734 4.317-1.734 1.122 0 1.836.442 1.836 1.801v10.235c0 1.632.273 2.448 1.021 2.448 1.53 0 2.21-3.978 2.21-7.072v-2.516c0-1.972-1.258-1.836-1.258-3.162 0-1.054 2.107-1.734 4.317-1.734M43.346 3.669c1.122 0 1.836.442 1.836 1.802v18.462c0 1.971 1.257 1.836 1.258 3.162 0 1.054-2.109 1.734-4.149 1.734-1.122 0-1.632-.442-1.836-1.802l-.17-1.122c-.782 1.904-1.904 2.924-3.773 2.924-3.196 0-5.406-3.604-5.407-9.18 0-5.61 2.143-9.18 5.577-9.18 1.801 0 2.72.782 3.603 2.448V8.565c0-1.971-1.257-1.836-1.258-3.162 0-1.054 2.109-1.734 4.319-1.734m15.289 0c1.122 0 1.836.442 1.836 1.802v18.462c0 1.971 1.257 1.836 1.258 3.162 0 1.054-2.109 1.734-4.149 1.734-1.121 0-1.632-.442-1.836-1.802l-.17-1.122c-.782 1.904-1.904 2.924-3.773 2.924-3.196 0-5.406-3.604-5.407-9.18 0-5.61 2.143-9.18 5.577-9.18 1.802 0 2.72.782 3.603 2.448V8.565c0-1.971-1.257-1.836-1.258-3.162 0-1.054 2.109-1.734 4.319-1.734m80.026 0c1.122 0 1.836.442 1.836 1.802v7.922c.598-1.457 1.396-2.394 2.575-2.755.227.12.464.226.71.31.183.692.52 1.359 1.066 1.922.56.578 1.216.92 1.825 1.131l.078.026.079.023a4.7 4.7 0 0 0 1.939.143c.581 1.467.909 3.316.909 5.456 0 5.61-2.143 9.18-5.576 9.18-1.87 0-3.197-1.122-4.081-2.788-.816 1.224-1.87 2.788-3.196 2.788-.714 0-1.223-.409-1.223-1.394V8.565c0-1.971-1.258-1.836-1.258-3.162 0-1.054 2.107-1.734 4.317-1.734m-72.29 0c1.122 0 1.836.408 1.836 1.632v18.972c0 1.971 1.258 1.836 1.258 3.162 0 .748-.476 1.054-1.598 1.054h-4.25c-1.122 0-1.564-.306-1.564-1.054 0-1.36 1.258-1.224 1.258-3.23V8.565c0-1.971-1.258-1.836-1.258-3.162 0-1.054 2.108-1.734 4.318-1.734m49.801 0c1.122 0 1.836.408 1.836 1.632v18.972c0 1.971 1.257 1.836 1.258 3.162 0 .748-.476 1.054-1.598 1.054h-4.25c-1.122 0-1.564-.306-1.564-1.054 0-1.36 1.257-1.224 1.257-3.23V8.565c0-1.971-1.257-1.836-1.257-3.162 0-1.054 2.108-1.734 4.318-1.734m26.025 10.234c-1.122 0-1.7 1.496-1.7 5.848v2.685s.306 3.536 2.21 3.537c1.258 0 1.973-1.326 1.973-4.318 0-3.094-.579-7.752-2.483-7.752m-104.156-.578c-1.19 0-1.937 1.326-1.937 4.352 0 3.06.544 7.718 2.482 7.718 1.156 0 1.7-1.497 1.7-5.848V17.2s-.307-3.876-2.245-3.876m15.29 0c-1.19 0-1.938 1.326-1.938 4.352 0 3.06.544 7.718 2.482 7.718 1.156 0 1.7-1.497 1.7-5.848V17.2s-.307-3.876-2.245-3.876m24.294-1.12c-1.7.067-2.857 1.359-2.89 4.52h6.085c0-2.55-1.087-4.589-3.195-4.52M6.29 14.208c0 1.598.51 2.414 1.666 2.414 1.53 0 2.448-1.666 2.448-4.08 0-3.366-1.53-5.882-4.114-5.882zM150.014.045c.323-.065.571-.06.886.018 1.019.24 1.606 1.1 1.404 2.13-.145.734-.669 1.055-1.109 1.608-.133.167-.105.22.048.338.236.019.384-.19.556-.324.126-.097.241-.183.378-.267.077-.047.154-.14.233-.189.255-.173.51-.258.818-.287.482-.045 1.073.155 1.432.474.313.278.566.889.578 1.298.012.382-.173.991-.451 1.273-.669.717-1.49.668-2.362.425a3.4 3.4 0 0 0-.55-.1c-.092-.008-.156.216-.141.286.017.099.203.137.284.172.22.097.447.173.665.276.21.092.412.15.593.302.44.343.661.746.734 1.296.033.36-.139.99-.373 1.261-.567.654-1.3.895-2.132.58a1.77 1.77 0 0 1-1.008-.955c-.038-.087-.064-.198-.1-.288-.074-.187-.134-.376-.197-.566-.059-.18-.065-.334-.221-.456-.349-.003-.253.215-.221.468.088.709.264 1.314-.121 1.986a1.8 1.8 0 0 1-.671.647c-.479.268-.935.263-1.452.12-.675-.233-1.092-.634-1.259-1.33a1.7 1.7 0 0 1 .239-1.345c.1-.147.203-.24.313-.37.196-.236.407-.455.607-.686.123-.142.007-.226-.102-.325-.233.05-.537.344-.732.485a9 9 0 0 0-.44.334c-.092.075-.19.099-.296.145-.703.312-1.625.043-2.107-.539-.404-.51-.533-1.254-.278-1.855.237-.558.717-.993 1.336-1.086.097-.014.191-.033.289-.037.526.003 1.074.2 1.588.28.031-.017.073-.044.104-.063.08-.14.079-.171.008-.307-.302-.163-.718-.277-1.039-.423a1.9 1.9 0 0 1-.568-.35 1.747 1.747 0 0 1-.233-2.454c.106-.129.236-.243.363-.355.217-.193.578-.325.868-.357.784-.073 1.548.317 1.878 1.038.039.085.065.2.097.292l.236.684c.053.16.074.28.203.394.105-.007.259.002.264-.14.01-.184-.058-.37-.076-.548-.042-.423-.159-.823-.061-1.246.135-.582.566-1.111 1.148-1.296.05-.016.099-.052.15-.066"/></svg>
